<?xml version="1.0" ?>
<!DOCTYPE svg  PUBLIC '-//W3C//DTD SVG 1.0//EN'  'http://www.w3.org/TR/2001/REC-SVG-20010904/DTD/svg10.dtd'>
<svg version="1.0" viewBox="0 1 24 25" xmlns="http://www.w3.org/2000/svg">
    <path stroke="#000" stroke-width="0" fill="rgba(0, 0, 0, 0.5)" fill-rule="evenodd"
          d="M 3 7 H 5 A 8 8 0 0 1 19 7 H 21 A 2 2 0 0 1 23 9 V 21
           A 2 2 0 0 1 21 23 H 3 A 2 2 0 0 1 1 21 V 9 A 2 2 0 0 1 3 7
           z M 12 8.5 A 6.5 6.5 0 1 0 12.0001 8.5 z M 7 7 A 6 6 0 0 1 17 7 z"/>
    <path stroke="#900" stroke-width="0.3" fill="red" fill-opacity="0.5"
        d="M 10.5 10.5 h 3 v 3 h 3 v 3 h -3 v 3 h -3 v -3 h -3 v -3 h 3 Z"/>
</svg>
