<?xml version="1.0" ?>
<!DOCTYPE svg  PUBLIC '-//W3C//DTD SVG 1.0//EN'  'http://www.w3.org/TR/2001/REC-SVG-20010904/DTD/svg10.dtd'>
<svg enable-background="new 0 0 24 24" 
	id="Layer_1" 
	version="1.0" 
	viewBox="0 0 24 24" 
	xml:space="preserve" 
	xmlns="http://www.w3.org/2000/svg" 
	xmlns:xlink="http://www.w3.org/1999/xlink">

	<defs>
        <linearGradient id="MyGradient" y1="0.09" y2="1" x1="0" x2="0">
            <stop offset="5%"  stop-color="#DDD"/>
            <stop offset="95%" stop-color="#AAA"/>
        </linearGradient>

        <clipPath id="shape">
			<path 
				transform="translate(0, 0.1725)"
			d="M 22 12 A 10 10 0 0 1 2 12.000000000000002 L 3 11.8 5 11 6 11.4 8 12.8 11 12 19 12.8 21 11.75 z"/>
		</clipPath>
    </defs>
	
	
		<path id="path0" 
			stroke="rgba(0, 0, 0, 0.5)" 
			fill="url(#MyGradient)" 
			stroke-width="0.35"
			stroke-linecap="round"
			stroke-linejoin="round"
			d="M 22 12 A 10 10 0 0 1 2 12.000000000000002 L 3 11.8 5 11 6 11.4 8 12.8 11 12 19 12.8 21 11.75 z"/>

		
		<path id="path1" stroke="none" fill="#DDD" d="M 19.878462024097665 13.389185421335442 A 8 8 0 0 1 4.121537975902336 13.389185421335442 z"/>
		<path id="path3" 
			stroke="none" 
			fill="#FFF" d="M 4.121537975902336 13.389185421335442 A 9 9 0 0 1 3 12.000000000000002 L 21 12 A 8 8 0 0 1 19.878462024097665 13.389185421335442 z"
			clip-path="url(#shape)"/>
		<path id="path2" 
			stroke="none" 
			fill="#CCC" 
			clip-path="url(#shape)"
			d="M 3 12.000000000000002 A 9 9 0 0 1 4.121537975902335 10.61081457866456 L 19.878462024097665 10.610814578664558 A 9 9 0 0 1 21 12 z"/>
	
		<path id="path0" 
			stroke="rgba(255, 255, 255, 0.25)" 
        	stroke-width="0.5"
			stroke-linejoin="round"
			fill="none"
			clip-path="url(#shape)"
			d="M 21.6 12 A 1 1 0 0 1 2.4 12"/>
	<!--
	<script>
	function scale(cx, cy, angle, radius) {
        var radians = angle / 360 * Math.PI * 2 - Math.PI / 2;
        return [
            radius * Math.cos(radians) + cx,
            radius * Math.sin(radians) + cy
        ];
    }

    document.getElementById("path0").setAttribute("d", ["M"].concat(
    	scale(12, 12, 90, 10),
        'A', 
        10, 
        10, 
        0, 
        0, 
        1,
        scale(12, 12, 270, 10),
        "L 3 11.8 5 11 6 11 8 11.8 11 12 20 11.5 21 11.5 z"

    ).join(" "));
	</script>
	-->
</svg>
