<?xml version="1.0" ?>
<!DOCTYPE svg  PUBLIC '-//W3C//DTD SVG 1.0//EN'  'http://www.w3.org/TR/2001/REC-SVG-20010904/DTD/svg10.dtd'>
<svg enable-background="new 0 0 24 24"
	version="1.0"
	viewBox="0 0 24 24"
	xmlns="http://www.w3.org/2000/svg"
	xmlns:xlink="http://www.w3.org/1999/xlink">

	<!-- <circle cx="12" cy="12" r="10" stroke="rgba(0, 0, 0, 0.5)" stroke-width="0.35" fill="url(#MyGradient)"/> -->
	<!-- <path id="path1" stroke="none" fill="#DDD" d="M 4.121537975902335 10.61081457866456 A 8 8 0 0 1 19.878462024097665 10.610814578664558 z M 19.878462024097665 13.389185421335442 A 8 8 0 0 1 4.121537975902336 13.389185421335442 z"/> -->
	<!-- <path id="path2" stroke="none" fill="#AAA" d="M 3 12.000000000000002 A 9 9 0 0 1 4.121537975902335 10.61081457866456 L 19.878462024097665 10.610814578664558 A 9 9 0 0 1 21 12 z"/> -->
	<!-- <path id="path3" stroke="none" fill="#FFF" d="M 4.121537975902336 13.389185421335442 A 9 9 0 0 1 3 12.000000000000002 L 21 12 A 8 8 0 0 1 19.878462024097665 13.389185421335442 z"/> -->
    <!-- <circle cx="12" cy="12" r="9.6" stroke="rgba(255, 255, 255, 0.25)" stroke-width="0.5" fill="none"/> -->
    <path stroke="#000" fill="#999" stroke-width="0.1" d="
        M 11 14
        L
            12 19
            22 16
            22 5
            15 5
            15 12.5
            11 14
        Z"/>
    <path stroke="#000" fill="#DDD" stroke-width="0.05" d="
        M 16 1
        L 21 1
          21 4.5
          16 4.5
        Z
    "/>

    <g style="transform:translate(-1px, 0.2px)">
        <!-- Line 1 -->
        <g style="transform:translate(1.2px, 0.5px)">
            <circle cx="10" cy="14.5" r="0.25" stroke="#000" stroke-width="0.05" fill="#333"/>
            <circle cx="8"  cy="14.5" r="0.25" stroke="#000" stroke-width="0.05" fill="#666"/>
            <circle cx="6"  cy="14.5" r="0.25" stroke="#000" stroke-width="0.05" fill="#999"/>
            <circle cx="4"  cy="14.5" r="0.25" stroke="#000" stroke-width="0.05" fill="#ccc"/>
        </g>

        <!-- Line 2 -->
        <g style="transform:rotate(-10deg) translate(-1.8px, 1.75px)">
            <circle cx="10" cy="16"   r="0.25" stroke="#000" stroke-width="0.05" fill="#333"/>
            <circle cx="8"  cy="16"   r="0.25" stroke="#000" stroke-width="0.05" fill="#666"/>
            <circle cx="6"  cy="16"   r="0.25" stroke="#000" stroke-width="0.05" fill="#999"/>
            <circle cx="4"  cy="16"   r="0.25" stroke="#000" stroke-width="0.05" fill="#ccc"/>
        </g>

        <!-- Line 3 -->
        <g style="transform:rotate(-20deg) translate(-5.15px, 2.35px)">
            <circle cx="10" cy="17.5" r="0.25" stroke="#000" stroke-width="0.05" fill="#333"/>
            <circle cx="8"  cy="17.5" r="0.25" stroke="#000" stroke-width="0.05" fill="#666"/>
            <circle cx="6"  cy="17.5" r="0.25" stroke="#000" stroke-width="0.05" fill="#999"/>
            <circle cx="4"  cy="17.5" r="0.25" stroke="#000" stroke-width="0.05" fill="#ccc"/>
        </g>

        <!-- Line 4 -->
        <g style="transform:rotate(-30deg) translate(-8.8px, 2.4px)">
            <circle cx="10" cy="19"   r="0.25" stroke="#000" stroke-width="0.05" fill="#333"/>
            <circle cx="8"  cy="19"   r="0.25" stroke="#000" stroke-width="0.05" fill="#666"/>
            <circle cx="6"  cy="19"   r="0.25" stroke="#000" stroke-width="0.05" fill="#999"/>
            <circle cx="4"  cy="19"   r="0.25" stroke="#000" stroke-width="0.05" fill="#ccc"/>
        </g>
    </g>

	<!--
	<script>
	function scale(cx, cy, angle, radius) {
        var radians = angle / 360 * Math.PI * 2 - Math.PI / 2;
        return [
            radius * Math.cos(radians) + cx,
            radius * Math.sin(radians) + cy
        ];
    }

    var path = ["M"].concat(
    	scale(12, 12, 280, 8),
        'A',
        8,
        8,
        0,
        0,
        1,
        scale(12, 12, 80, 8),
        "z",
        "M",
		scale(12, 12, 100, 8),
        'A',
        8,
        8,
        0,
        0,
        1,
        scale(12, 12, 260, 8),
        "z"
    );

    document.getElementById("path1").setAttribute("d", path.join(" "));

    document.getElementById("path2").setAttribute("d", ["M"].concat(
    	scale(12, 12, 270, 9),
        'A',
        9,
        9,
        0,
        0,
        1,
        scale(12, 12, 280, 8),
        "L",
        scale(12, 12, 80, 8),
        'A',
        9,
        9,
        0,
        0,
        1,
        scale(12, 12, 90, 9),
        "z"

    ).join(" "));

    document.getElementById("path3").setAttribute("d", ["M"].concat(
    	scale(12, 12, 260, 8),
        'A',
        9,
        9,
        0,
        0,
        1,
        scale(12, 12, 270, 9),
        "L",
        scale(12, 12, 90, 9),
        'A',
        8,
        8,
        0,
        0,
        1,
        scale(12, 12, 100, 8),
        "z"

    ).join(" "));
	</script>
	-->
</svg>
