<?xml version="1.0" encoding="UTF-8" standalone="no"?>
<svg
   xmlns:dc="http://purl.org/dc/elements/1.1/"
   xmlns:cc="http://creativecommons.org/ns#"
   xmlns:rdf="http://www.w3.org/1999/02/22-rdf-syntax-ns#"
   xmlns:svg="http://www.w3.org/2000/svg"
   xmlns="http://www.w3.org/2000/svg"
   xmlns:xlink="http://www.w3.org/1999/xlink"
   xmlns:sodipodi="http://sodipodi.sourceforge.net/DTD/sodipodi-0.dtd"
   xmlns:inkscape="http://www.inkscape.org/namespaces/inkscape"
   enable-background="new 0 0 24 24"
   id="Layer_1"
   version="1.0"
   viewBox="0 0 141.40626 118.62501"
   xml:space="preserve"
   inkscape:version="0.48.5 r10040"
   width="100%"
   height="100%"
   sodipodi:docname="weekly.svg"><metadata
     id="metadata13"><rdf:RDF><cc:Work
         rdf:about=""><dc:format>image/svg+xml</dc:format><dc:type
           rdf:resource="http://purl.org/dc/dcmitype/StillImage" /><dc:title></dc:title></cc:Work></rdf:RDF></metadata><defs
     id="defs11"><linearGradient
       inkscape:collect="always"
       id="linearGradient3788"><stop
         style="stop-color:#ffffff;stop-opacity:1;"
         offset="0"
         id="stop3790" /><stop
         style="stop-color:#ffffff;stop-opacity:0;"
         offset="1"
         id="stop3792" /></linearGradient><linearGradient
       inkscape:collect="always"
       xlink:href="#linearGradient3788"
       id="linearGradient3794"
       x1="34.001083"
       y1="67.118365"
       x2="71.654519"
       y2="67.118365"
       gradientUnits="userSpaceOnUse" /></defs><sodipodi:namedview
     pagecolor="#ffffff"
     bordercolor="#666666"
     borderopacity="1"
     objecttolerance="10"
     gridtolerance="10"
     guidetolerance="10"
     inkscape:pageopacity="0"
     inkscape:pageshadow="2"
     inkscape:window-width="1439"
     inkscape:window-height="847"
     id="namedview9"
     showgrid="false"
     inkscape:zoom="11.313708"
     inkscape:cx="104.69057"
     inkscape:cy="35.193011"
     inkscape:window-x="0"
     inkscape:window-y="0"
     inkscape:window-maximized="0"
     inkscape:current-layer="Layer_1"
     fit-margin-top="16"
     fit-margin-left="10"
     fit-margin-right="32"
     fit-margin-bottom="20"
     inkscape:snap-bbox="false" /><path
     sodipodi:type="arc"
     style="fill:#fe0000;fill-opacity:0.49803922;stroke:#990000;stroke-width:2;stroke-linejoin:round;stroke-miterlimit:4;stroke-opacity:1;stroke-dasharray:none"
     id="path3877"
     sodipodi:cx="13.611806"
     sodipodi:cy="43.091885"
     sodipodi:rx="28.814602"
     sodipodi:ry="28.991379"
     d="m 42.426408,43.091885 a 28.814602,28.991379 0 1 1 -57.629204,0 28.814602,28.991379 0 1 1 57.629204,0 z"
     transform="matrix(0.89894268,0,0,0.91480278,95.43844,46.548042)" /><path
     style="opacity:0.5;fill:#000000;fill-opacity:1;stroke:#000000;stroke-width:0;stroke-miterlimit:4;stroke-opacity:1"
     d="m 15.830011,16.135724 8.292092,-0.07322 c 0,0 -0.471546,13.059119 9.932257,12.8125 10.196988,-0.241716 9.932258,-12.75 9.932258,-12.75 l 15.557257,-0.0625 15.494757,0 c 0,0 -0.727639,13.062748 10.119757,12.9375 9.61526,-0.111021 8.932258,-12.9375 8.932258,-12.9375 l 10.359023,0.191942 c 3.08009,0.05707 4.85339,2.826452 4.84419,6.079029 l -0.0884,31.259359 C 82.762628,53.2093 68.78373,80.664344 78.713043,98.73928 L 15.564826,98.5625 c -3.960323,-0.01109 -5.526327,-2.915306 -5.520971,-6.52097 l 0.103553,-69.708058 c 0.0063,-4.225025 2.477807,-6.169448 5.682583,-6.197748 z"
     id="rect3868"
     inkscape:connector-curvature="0"
     sodipodi:nodetypes="ccscccscssccssssc" /><text
     xml:space="preserve"
     style="font-size:77.32571411px;font-style:normal;font-variant:normal;font-weight:normal;font-stretch:normal;text-align:start;line-height:125%;letter-spacing:0px;word-spacing:0px;writing-mode:lr-tb;text-anchor:start;fill:#ffffff;fill-opacity:1;stroke:#ffffff;stroke-width:0.93235987;stroke-opacity:1;font-family:AppleMyungjo;-inkscape-font-specification:AppleMyungjo"
     x="23.642738"
     y="98.417046"
     id="text3873"
     sodipodi:linespacing="125%"
     transform="scale(1.1596962,0.8622948)"><tspan
       sodipodi:role="line"
       id="tspan3875"
       x="23.642738"
       y="98.417046"
       style="fill:#ffffff;fill-opacity:1;stroke:#ffffff;stroke-width:0.93235987;stroke-opacity:1">7</tspan></text>
<path
     sodipodi:type="arc"
     style="opacity:0.5;fill:#000000;fill-opacity:1;fill-rule:nonzero;stroke:#000000;stroke-opacity:1"
     id="path5321"
     sodipodi:cx="-62.755726"
     sodipodi:cy="-31.331106"
     sodipodi:rx="3.7123106"
     sodipodi:ry="10.783379"
     d="m -59.043415,-31.331106 a 3.7123106,10.783379 0 1 1 -7.424621,0 3.7123106,10.783379 0 1 1 7.424621,0 z"
     transform="translate(96.593878,44.812501)" /><path
     sodipodi:type="arc"
     style="opacity:0.5;fill:#000000;fill-opacity:1;fill-rule:nonzero;stroke:#000000;stroke-opacity:1"
     id="path5323"
     sodipodi:cx="-10.783379"
     sodipodi:cy="-31.154329"
     sodipodi:rx="3.7123106"
     sodipodi:ry="11.313708"
     d="m -7.071068,-31.154329 a 3.7123106,11.313708 0 1 1 -7.424621,0 3.7123106,11.313708 0 1 1 7.424621,0 z"
     transform="translate(95.193567,44.812501)" /><path
     style="fill:none;stroke:#ffffff;stroke-width:6;stroke-linecap:butt;stroke-linejoin:round;stroke-miterlimit:4;stroke-opacity:1;stroke-dasharray:none"
     d="m 106.2373,68.585238 -0.0303,17.361174 9.75228,8.861359 -9.69195,-8.892897 z"
     id="path3759"
     inkscape:connector-curvature="0"
     sodipodi:nodetypes="ccccc" /></svg>
